<svg width="20" height="23" viewBox="0 0 20 23" fill="none" xmlns="http://www.w3.org/2000/svg">
<path d="M18.9745 15.5556C18.3716 17.2239 17.3532 18.7145 16.0016 19.9069C14.65 21.0993 13.0032 21.9599 11.1946 22.419C9.38592 22.8782 7.46624 22.923 5.59097 22.5498C3.71569 22.1767 1.93751 21.396 0.400391 20.2711C2.97426 20.4397 5.49625 19.8308 7.59949 18.533C9.70273 17.2351 11.2775 15.316 12.0948 13.0549C12.912 10.7937 12.9291 8.30839 12.1435 5.96047C11.358 3.61255 9.81073 1.52449 7.72689 3.05176e-05C9.62576 0.124072 11.4897 0.667342 13.1679 1.58586C14.8461 2.50438 16.2913 3.77233 17.3865 5.28705C18.4818 6.80178 19.1962 8.52071 19.4721 10.3047C19.748 12.0886 19.5775 13.8875 18.9745 15.5556Z" fill="#121212"/>
</svg>
